<mxfile modified="2021-07-15T09:15:51.645Z" host="app.diagrams.net" agent="5.0 (Macintosh; Intel Mac OS X 10_15_7) AppleWebKit/537.36 (KHTML, like Gecko) Chrome/91.0.4472.114 Safari/537.36" etag="U_-TjgimaxUMkzMSLJOJ" version="14.8.0" type="github">
  <diagram name="Page-1" id="97a40813-6b03-0c74-37c1-0168de264b11">
    <mxGraphModel dx="815" dy="1530" grid="1" gridSize="10" guides="1" tooltips="1" connect="1" arrows="1" fold="1" page="1" pageScale="1" pageWidth="827" pageHeight="1169" background="#ffffff" math="0" shadow="0">
      <root>
        <mxCell id="0" />
        <mxCell id="1" parent="0" />
        <mxCell id="aL16ZHIRNdVHIbHvVfG5-1" value="" style="whiteSpace=wrap;html=1;fillColor=none;sketch=1;" vertex="1" parent="1">
          <mxGeometry x="570" y="-1127.5" width="140" height="205" as="geometry" />
        </mxCell>
        <mxCell id="aL16ZHIRNdVHIbHvVfG5-2" value="View V3" style="whiteSpace=wrap;html=1;fontColor=#333333;fillStyle=solid;fontStyle=1;strokeColor=#CC0066;fillColor=#FFCCE6;sketch=1;" vertex="1" parent="1">
          <mxGeometry x="580" y="-992.5" width="120" height="60" as="geometry" />
        </mxCell>
        <mxCell id="aL16ZHIRNdVHIbHvVfG5-3" value="" style="whiteSpace=wrap;html=1;fillColor=none;sketch=1;" vertex="1" parent="1">
          <mxGeometry x="630" y="-800.5" width="140" height="205" as="geometry" />
        </mxCell>
        <mxCell id="aL16ZHIRNdVHIbHvVfG5-4" value="Model M1" style="whiteSpace=wrap;html=1;fillColor=#f8cecc;strokeColor=#b85450;fillStyle=zigzag;fontColor=#990000;fontStyle=1;sketch=1;" vertex="1" parent="1">
          <mxGeometry x="640" y="-783" width="120" height="60" as="geometry" />
        </mxCell>
        <mxCell id="aL16ZHIRNdVHIbHvVfG5-5" style="edgeStyle=none;orthogonalLoop=1;jettySize=auto;html=1;fontSize=12;fontColor=#000000;exitX=0.734;exitY=0.884;exitDx=0;exitDy=0;exitPerimeter=0;startArrow=none;startFill=0;sketch=1;entryX=0;entryY=0.5;entryDx=0;entryDy=0;strokeColor=#E0E0E0;" edge="1" parent="1" source="aL16ZHIRNdVHIbHvVfG5-7" target="aL16ZHIRNdVHIbHvVfG5-4">
          <mxGeometry relative="1" as="geometry">
            <mxPoint x="690" y="-816" as="targetPoint" />
          </mxGeometry>
        </mxCell>
        <mxCell id="aL16ZHIRNdVHIbHvVfG5-6" style="edgeStyle=none;orthogonalLoop=1;jettySize=auto;html=1;entryX=0;entryY=0.5;entryDx=0;entryDy=0;fontSize=12;fontColor=#000000;startArrow=none;startFill=0;sketch=1;exitX=0.473;exitY=0.094;exitDx=0;exitDy=0;exitPerimeter=0;strokeColor=#E0E0E0;" edge="1" parent="1" source="aL16ZHIRNdVHIbHvVfG5-7" target="aL16ZHIRNdVHIbHvVfG5-41">
          <mxGeometry relative="1" as="geometry">
            <mxPoint x="370" y="-960" as="sourcePoint" />
            <mxPoint x="590" y="-1089" as="targetPoint" />
          </mxGeometry>
        </mxCell>
        <mxCell id="aL16ZHIRNdVHIbHvVfG5-7" value="Reflector" style="ellipse;shape=cloud;whiteSpace=wrap;html=1;fontSize=21;strokeColor=#6c8ebf;fillColor=#CCFFFF;fontColor=#0066CC;sketch=1;" vertex="1" parent="1">
          <mxGeometry x="310" y="-920" width="326" height="130" as="geometry" />
        </mxCell>
        <mxCell id="aL16ZHIRNdVHIbHvVfG5-8" style="edgeStyle=none;orthogonalLoop=1;jettySize=auto;html=1;fontSize=12;fontColor=#000000;exitX=0;exitY=0.5;exitDx=0;exitDy=0;startArrow=none;startFill=0;sketch=1;entryX=0.626;entryY=0.953;entryDx=0;entryDy=0;entryPerimeter=0;strokeColor=#E0E0E0;" edge="1" parent="1" source="aL16ZHIRNdVHIbHvVfG5-39" target="aL16ZHIRNdVHIbHvVfG5-7">
          <mxGeometry relative="1" as="geometry">
            <mxPoint x="680" y="-620" as="sourcePoint" />
          </mxGeometry>
        </mxCell>
        <mxCell id="aL16ZHIRNdVHIbHvVfG5-9" value="Client C2" style="text;html=1;strokeColor=none;fillColor=none;align=center;verticalAlign=middle;whiteSpace=wrap;fontStyle=1;sketch=1;" vertex="1" parent="1">
          <mxGeometry x="665" y="-595.5" width="70" height="20" as="geometry" />
        </mxCell>
        <mxCell id="aL16ZHIRNdVHIbHvVfG5-10" value="" style="outlineConnect=0;dashed=0;verticalLabelPosition=bottom;verticalAlign=top;align=center;html=1;fontSize=12;fontStyle=0;aspect=fixed;pointerEvents=1;shape=mxgraph.aws4.user;fillColor=#333333;strokeWidth=1;sketch=1;" vertex="1" parent="1">
          <mxGeometry x="681" y="-575.5" width="38" height="38" as="geometry" />
        </mxCell>
        <mxCell id="aL16ZHIRNdVHIbHvVfG5-11" value="publish(&quot;rollDice&quot;)" style="text;html=1;strokeColor=none;fillColor=none;align=center;verticalAlign=middle;whiteSpace=wrap;fontSize=12;rotation=52;sketch=1;fontColor=#E0E0E0;" vertex="1" parent="1">
          <mxGeometry x="515" y="-723" width="106" height="20" as="geometry" />
        </mxCell>
        <mxCell id="aL16ZHIRNdVHIbHvVfG5-12" value="subscribe&lt;br&gt;(&quot;rollDice&quot;)" style="text;html=1;strokeColor=none;fillColor=none;align=center;verticalAlign=middle;whiteSpace=wrap;fontSize=12;rotation=29;sketch=1;fontColor=#E0E0E0;" vertex="1" parent="1">
          <mxGeometry x="571.69" y="-806.83" width="64.31" height="30.83" as="geometry" />
        </mxCell>
        <mxCell id="aL16ZHIRNdVHIbHvVfG5-13" style="edgeStyle=none;orthogonalLoop=1;jettySize=auto;html=1;entryX=0.516;entryY=0.118;entryDx=0;entryDy=0;entryPerimeter=0;fontSize=12;fontColor=#000000;exitX=0;exitY=0.5;exitDx=0;exitDy=0;startArrow=none;startFill=0;sketch=1;strokeColor=#E0E0E0;" edge="1" parent="1" source="aL16ZHIRNdVHIbHvVfG5-2" target="aL16ZHIRNdVHIbHvVfG5-7">
          <mxGeometry relative="1" as="geometry">
            <mxPoint x="533.75" y="-893" as="targetPoint" />
            <mxPoint x="590" y="-1009" as="sourcePoint" />
          </mxGeometry>
        </mxCell>
        <mxCell id="aL16ZHIRNdVHIbHvVfG5-14" value="Client C3" style="text;html=1;strokeColor=none;fillColor=none;align=center;verticalAlign=middle;whiteSpace=wrap;fontStyle=1;sketch=1;" vertex="1" parent="1">
          <mxGeometry x="605" y="-922.5" width="70" height="20" as="geometry" />
        </mxCell>
        <mxCell id="aL16ZHIRNdVHIbHvVfG5-15" value="" style="outlineConnect=0;dashed=0;verticalLabelPosition=bottom;verticalAlign=top;align=center;html=1;fontSize=12;fontStyle=0;aspect=fixed;pointerEvents=1;shape=mxgraph.aws4.user;fillColor=#333333;strokeWidth=1;sketch=1;" vertex="1" parent="1">
          <mxGeometry x="621" y="-902.5" width="38" height="38" as="geometry" />
        </mxCell>
        <mxCell id="aL16ZHIRNdVHIbHvVfG5-16" value="publish&lt;br&gt;(&quot;rollDice&quot;)" style="text;html=1;strokeColor=none;fillColor=none;align=center;verticalAlign=middle;whiteSpace=wrap;fontSize=12;rotation=331;sketch=1;fontColor=#E0E0E0;" vertex="1" parent="1">
          <mxGeometry x="507.92" y="-936.7800000000001" width="63.77" height="33.56" as="geometry" />
        </mxCell>
        <mxCell id="aL16ZHIRNdVHIbHvVfG5-17" value="subscribe(&quot;rollDice&quot;)" style="text;html=1;strokeColor=none;fillColor=none;align=center;verticalAlign=middle;whiteSpace=wrap;fontSize=12;rotation=304;sketch=1;fontColor=#E0E0E0;" vertex="1" parent="1">
          <mxGeometry x="450" y="-994" width="106" height="20" as="geometry" />
        </mxCell>
        <mxCell id="aL16ZHIRNdVHIbHvVfG5-18" style="edgeStyle=none;orthogonalLoop=1;jettySize=auto;html=1;exitX=0.5;exitY=1;exitDx=0;exitDy=0;fontSize=12;fontColor=#000000;sketch=1;" edge="1" parent="1">
          <mxGeometry relative="1" as="geometry">
            <mxPoint x="608.7462562898772" y="-746.1164542430624" as="sourcePoint" />
            <mxPoint x="608.7462562898772" y="-746.1164542430624" as="targetPoint" />
          </mxGeometry>
        </mxCell>
        <mxCell id="aL16ZHIRNdVHIbHvVfG5-19" value="" style="whiteSpace=wrap;html=1;fillColor=none;sketch=1;" vertex="1" parent="1">
          <mxGeometry x="80" y="-966" width="140" height="205" as="geometry" />
        </mxCell>
        <mxCell id="aL16ZHIRNdVHIbHvVfG5-20" value="Model M1" style="whiteSpace=wrap;html=1;fillColor=#f8cecc;strokeColor=#b85450;fillStyle=zigzag;fontColor=#990000;fontStyle=1;sketch=1;" vertex="1" parent="1">
          <mxGeometry x="90" y="-950" width="120" height="60" as="geometry" />
        </mxCell>
        <mxCell id="aL16ZHIRNdVHIbHvVfG5-21" value="Client C1" style="text;html=1;strokeColor=none;fillColor=none;align=center;verticalAlign=middle;whiteSpace=wrap;fontStyle=1;sketch=1;" vertex="1" parent="1">
          <mxGeometry x="115" y="-760" width="70" height="20" as="geometry" />
        </mxCell>
        <mxCell id="aL16ZHIRNdVHIbHvVfG5-22" value="Session XYZ" style="text;html=1;align=center;verticalAlign=middle;whiteSpace=wrap;fontSize=14;fillColor=#ffffff;fontStyle=1;sketch=0;" vertex="1" parent="1">
          <mxGeometry x="120" y="-976" width="90" height="20" as="geometry" />
        </mxCell>
        <mxCell id="aL16ZHIRNdVHIbHvVfG5-23" value="" style="outlineConnect=0;dashed=0;verticalLabelPosition=bottom;verticalAlign=top;align=center;html=1;fontSize=12;fontStyle=0;aspect=fixed;pointerEvents=1;shape=mxgraph.aws4.user;fillColor=#333333;strokeWidth=1;sketch=1;" vertex="1" parent="1">
          <mxGeometry x="131" y="-740" width="38" height="38" as="geometry" />
        </mxCell>
        <mxCell id="aL16ZHIRNdVHIbHvVfG5-24" style="orthogonalLoop=1;jettySize=auto;html=1;entryX=0.101;entryY=0.664;entryDx=0;entryDy=0;entryPerimeter=0;fontColor=#990000;startArrow=none;startFill=0;sketch=1;strokeColor=#E0E0E0;" edge="1" parent="1">
          <mxGeometry relative="1" as="geometry">
            <mxPoint x="210" y="-805.8997924696117" as="sourcePoint" />
            <mxPoint x="342.92599999999993" y="-833.68" as="targetPoint" />
          </mxGeometry>
        </mxCell>
        <mxCell id="aL16ZHIRNdVHIbHvVfG5-25" style="edgeStyle=none;orthogonalLoop=1;jettySize=auto;html=1;entryX=1;entryY=0.5;entryDx=0;entryDy=0;fontSize=12;fontColor=#000000;exitX=0.07;exitY=0.4;exitDx=0;exitDy=0;exitPerimeter=0;startArrow=none;startFill=0;sketch=1;strokeColor=#E0E0E0;" edge="1" parent="1" target="aL16ZHIRNdVHIbHvVfG5-20">
          <mxGeometry relative="1" as="geometry">
            <mxPoint x="332.81999999999994" y="-868" as="sourcePoint" />
            <mxPoint x="210" y="-880" as="targetPoint" />
          </mxGeometry>
        </mxCell>
        <mxCell id="aL16ZHIRNdVHIbHvVfG5-26" value="publish(&quot;rollDice&quot;)" style="text;html=1;strokeColor=none;fillColor=none;align=center;verticalAlign=middle;whiteSpace=wrap;fontSize=12;rotation=348;sketch=1;fontColor=#E0E0E0;" vertex="1" parent="1">
          <mxGeometry x="230.03" y="-821.42" width="110" height="20.75" as="geometry" />
        </mxCell>
        <mxCell id="aL16ZHIRNdVHIbHvVfG5-27" value="subscribe(&quot;rollDice&quot;)" style="text;html=1;strokeColor=none;fillColor=none;align=center;verticalAlign=middle;whiteSpace=wrap;fontSize=12;rotation=23;sketch=1;fontColor=#E0E0E0;" vertex="1" parent="1">
          <mxGeometry x="225" y="-912" width="106" height="20" as="geometry" />
        </mxCell>
        <mxCell id="aL16ZHIRNdVHIbHvVfG5-28" value="View V1" style="whiteSpace=wrap;html=1;fontColor=#333333;fillStyle=solid;fontStyle=1;fillColor=#B3FF66;strokeColor=#66FF66;sketch=1;" vertex="1" parent="1">
          <mxGeometry x="90" y="-833" width="120" height="60" as="geometry" />
        </mxCell>
        <mxCell id="aL16ZHIRNdVHIbHvVfG5-29" value="" style="shape=image;verticalLabelPosition=bottom;labelBackgroundColor=#ffffff;verticalAlign=top;aspect=fixed;imageAspect=0;image=data:image/png,iVBORw0KGgoAAAANSUhEUgAAAPwAAAD8CAYAAABTq8lnAAAN8UlEQVR4Ae2dwW4URxRF+RYsdkj5Fb6A3yALpLDPB0RykCKhZJ0NK/YOyoIVii2BvEEmQrZiWUk2YUFHF1R4aKbtGk931Zt3D9KoPU1PV3W9e+q+ma6uunWLf7QALeDVAi9/uP2Il18bHP14+zvi7hX3jz2bgn64vzfwog3QQG4NADwdHR29kQYA3ijYuHdu966JL8ADPA5vpAGANwp2jQNwTO4sAOABHoc30gDAGwUb987t3jXxBXiAx+GNNADwRsGucQCOyZ0FADzA4/BGGgB4o2Dj3rnduya+NwL+9ODbgRdtgAbiaKAGdh1zY+CHi5OBF22ABvprQB0vwNMh0SGbaADgTQKNu/Z31wgxAHiAx92NNADwRsGO4DDUoW+mAfAAj8MbaQDgjYKNu/Z11wjtD/AAj8MbaQDgjYIdwWGoQ98sA+ABHoc30gDAGwUbd+3rrhHaH+ABHoc30gDAGwU7gsNQh75ZBsADPA5vpAGANwo27trXXSO0P8ADPA5vpAGANwp2BIehDn2zDIAHeBzeSAMAbxRs3LWvu0Zof4AHeBzeSAMAbxTsCA5DHfpmGQAP8Di8kQYA3ijYuGtfd43Q/gAP8Di8kQYA3ijYERyGOvTNMgAe4HF4Iw0AvFGwcde+7hqh/QEe4HF4Iw0AvFGwIzgMdeibZQA8wOPwRhoAeKNg46593TVC+wM8wOPwRhoAeKNgR3AY6tA3ywB4gMfhjTQA8EbBxl37umuE9gf4SuD/+/P34Z+jX4bzF98PZ88fDqcHDz5u9V779f8RAkodloM6gwYA/grg//7jp+Hts/vD65+/GQ7396596Tgdr88B3nLgtWzbbBoA+BHwH/46Hs5+e1gN+VRHIPh1ng/nx8A/auOWwN6krMwaAPgVMSo9f/Xk7rVOPgX5uv06n857E+HxmfZZQnYNAPzFyfD+3YvhzdN7s4I+hl/nVzlA3B7imjZ30YA98P++/nXr9H0M99R7pfkqr0aAHNOuY3DSgDXw+nX96PGdRZ19DL/KU7kA3Q7oq9raTQO2wKtXbw17gV/l4vT9gXfUgCXw+r5We6utQDr3VuXznb4f9K4asAR+6R/oajsH1eOqdJP/W65DcNWAHfC67VILZIvjuGW3HNRTHaazBqyA1yCYue+zb9spqD4a6DElTvbP2yG4a8AKeI182xbQJT6vegH2vGBPtae7BqyA7/1D3VRnoXpNCZT983YE7hqwAV4PQUwBF2E/D9zMC/a6jhINnAw2wOsptghgT9VB9VsnUvbN1xGgASPgo6ZypQMgrZ8P7KlOEg2YAK+JCwpYkbdMorEc9GjgU9tapPQaLx0Z9FI3xtgvBzwaMAI+2kCLAvh4yyCc5YBHA0bAaw66MVwR36ueU98/2b9dZ4AGjIDXhJMRAR/XSfUE7O3Anmo/NGAEPL37MhBNwRVxPxowAp7vbwCPBoyA5xdagEcDRsBzDxbg0YAR8PpOySgroEcDJiPtBDzjqAEeDRgBz5NSAI8GjICPnNbz4Ey7zihqWt9KAxZj6ct9YffZTko7OG/dNWAFvOaOCzmnHQtONhth6K4BK+DlbNEGYKg+zo7b49qdNWAHvATmOid5D7iilumqAUvgXVcdiQpfj3q5asASeAnMcV2xHmBFLtNRA7bAS4gaX916QUlWj213C66ms3HTgDXwEoR6+Vb3ZlWOyqsRIse06xicNGAPvMDS97mlf8TR+VUOILcDeZO2dtEAwF9cClC3a+a+T6/zcevtso03gbDHsdk1APArwEtgWmxQo7G2TfP1eZ2HhSJ3B/bSwWTWAMCPgC9B11YPW+gJq1r4dZyO1+dWz8Pfuwd9iVk2DQD8FcCXoGurCRT0i65SPs2PpkkRtdV77df/rx7P37sL+VTsMmgA4CuBnxIB+/OBnTmmAA/wZCZGGgB4o2Bndi6urS7TAniAx+GNNADwRsHGBetcMHM7ATzA4/BGGgB4o2Bndi6urS57AXiAx+GNNADwRsHGBetcMHM7ATzA4/BGGgB4o2Bndi6urS57AXiAx+GNNADwRsHGBetcMHM7ATzA4/BGGgB4o2Bv4lwZHgXd5HpdjgV4gP/s8Nkme3CBeJPrBHhz4DUF16xTerFO3ucOdBMQWx0L8MbAZ5+wsRVEu1QOwBsC7zIl8y6B2KquAG8GvNOiC60g2qVyAN4IeLdllXYJxFZ1BXgT4OXsrdfRO9zfG/RSuSyxFWPQD8AbAK/v7LVz6xdI596qfJba6g89wBsAv/S6ebWdg+rRKnWlnPWdC8AnB1633mqBbHGc6gOM62Fs0S4Anxh4rZE29+KY23YKqg/r7QE8vf4CHY9G0G0L6BKfV71auBllfN2x4PALgBZFaL1/qJvqLFSvKG3kVg+ATwq8HoSZAi7CflbY/dp9W3Q+AJ8UeC1bHQHsqTqofi0EThlfdiwAnxT4qOl86QBI678EsVXHBPAJgdfkFQWsyFvVs5XQKedTBwPwCYHXmPnIoJe6qZ6A2NbpAT4h8NEG2xTAx1sG4bSFXZ0rwCcE/ux5zPvvY+BVTxy+LfQAnxD404MHO5HSq54AD/CIYMtOCIdvC9EudVo4/JZwRQw23+EBfkqXAJ8QeH6lB3iATwj2VFC5Dw/wU9rA4ZN2BIy0A/p10AN8UuAZSw/wAJ8U7nWB5Wk5gF+nCxw+cScQNa3nwZl+nRHAJwaeGW/6gbXOXSPsA/jEwGvuuJBz2rHgZLfBZQCfGHg5SrRBODww0zfrAPjkwAt65qXvC1mEVL7UAeANgGflGYAHeAPQS5C1ZW05oJcOcHgj8Fk9FugB3gj44vSt7s+rHFaNjdXJALwZ8IJe3+mX/iFP52e12Fiwk9Ibwq6gl5dukc19n17n49bbZRuXto6yxeFXAIgSlJb10IKTGpG3bZqvz+s8LBQZF3bpCuDNgV/tXPTAjZ6yq4Vfx+l4lo2KDflqjAEe4D+n+KvC0CQa+lVf6bnmyNOEk9rqvfaziMTuQL4aV4AH+LXAr4qEv3cT7nVxA3iAB3gjDQC8UbDX9fjsy+PeNbEEeIDH4Y00APBGwa5xAI7J7fgAD/A4vJEGAN4o2Lh3bveuiS/AAzwOb6QBgDcKdo0DcEzuLADgAR6HN9IAwBsFG/fO7d418QV4gMfhjTQA8EbBrnEAjsmdBQA8wOPwRhoAeKNg49653bsmvgAP8Di8kQYA3ijYNQ7AMbmzAIAHeBzeSAMAbxRs3Du3e9fEF+ABHoc30gDAVwabSR1xxwwaAPgrgGfaZiDPpgGAHwGvhRRmXZjh/JiUedTGNd81ex6TWQMAvyJGll7C0bNrAOBZXJEMxEgD9sBrOePapZUO9/eGbV4qh+WT42URThqwBl5LJh09vrMVxJt2ACpP5fb8jkrZl52OmwZsgVev3hr20jmoXJz+ErpeHZCjBiyBf//uRbM0vkA+3iq9Vz16id29XFcNWAL/5um9pmn8GPbyXvVwB6/X9btqwA543XYpwEXYqj69RO9arrMGrID/cH48vHpyNxTwqo8GerjC1/q63TVgBbxG0EVw9XEdVK/Wwnctz10DVsC3ut8+Bvq696qXK4Ctr9tdAzbA6yGI68Dr+f+qX2vxu5WHBk4GG+DfPrsfGnjVzw3A1teLBoyAj5rKlayCtH75gThowAR4TVxQwIq8VT1bu55LeWjgU4dqkdJrvHRk0EvdGGO/nMujASPgow20KICPtwzCWQ54NGAE/NnzmPffx8Crni4pduvrRANGwJ8ePNiJlF71bA2CS3lowAh4evflUuVd6TDQgBHwfH8DeDRgBDy/0AI8GjACnnuwAI8GjIDX90xGWQE9GjAZaSfgGUcN8GjACHielAJ4NGAEfOS0ngdn2nVGUdP6VhqwGEtf7hW7z3ZS2sF5664BK+A1d1zIOe1YcLLZCEN3DVgBL2eLNgBD9XF23B7X7qwBO+AlMNc5yXvAFbVMVw1YAu+66khU+HrUy1UDlsBLYI7rivUAK3KZjhqwBV5C1Pjq1gtKsnpsu1twNZ2NmwasgZcg1Mu3ujerclRejRA5pl3H4KQBe+AFlr7PLf0jjs6vcgC5HcibtLWLBgD+4lKAul0z9316nY9bb5dtvAmEPY7NrgGAXwFeAtNigxqNtW2ar8/rPCwUuTuwlw4mswYAfgR8Cbq2ethCT1jVwq/jdLw+t3oe/t496EvMsmkA4K8AvgRdW02goF90lfJpfjRNiqit3mu//n/1eP7eXcinYpdBAwBfCfyUCNifD+zMMQV4gCczMdIAwBsFO7NzcW11mRbAAzwOb6QBgDcKNi5Y54KZ2wngAR6HN9IAwBsFO7NzcW112QvAAzwOb6QBgDcKNi5Y54KZ2wngAR6HN9IAwBsFO7NzcW112QvAAzwOb6QBgDcKNi5Y54KZ2wngAR6HN9IAwBsFO7NzcW112QvAAzwOb6QBgDcKNi5Y54KZ2wngAR6HN9IAwBsFO7NzcW112QvAAzwOb6QBgDcKNi5Y54KZ2wngAR6HN9IAwBsFO7NzcW112QvAAzwOb6QBgDcKNi5Y54KZ2wngAR6HN9IAwBsFO7NzcW112QvAAzwOb6QBgDcKNi5Y54KZ26kJ8CqEF22ABmJo4HB/b6h53dK/lz/cflRzMMfUNSrtRDtF1QDAV/aMUQNIvehcNtEAwAN8VSq4iag4Nm4nBPAAD/BGGgB4o2DjvHGdt1VsAB7gcXgjDQC8UbBbuQjlxM0kAB7gcXgjDQC8UbBx3rjO2yo2AA/wOLyRBv4H/fhzYZDvMk0AAAAASUVORK5CYII=;sketch=1;" vertex="1" parent="1">
          <mxGeometry x="183" y="-799" width="27" height="27" as="geometry" />
        </mxCell>
        <mxCell id="aL16ZHIRNdVHIbHvVfG5-30" value="init()" style="text;html=1;strokeColor=none;fillColor=none;align=center;verticalAlign=middle;whiteSpace=wrap;rounded=0;sketch=1;fontSize=12;fontColor=#000000;fontStyle=1" vertex="1" parent="1">
          <mxGeometry x="170" y="-910" width="40" height="20" as="geometry" />
        </mxCell>
        <mxCell id="aL16ZHIRNdVHIbHvVfG5-31" style="orthogonalLoop=1;jettySize=auto;html=1;fontColor=#990000;startArrow=classic;startFill=1;sketch=1;entryX=0.5;entryY=1;entryDx=0;entryDy=0;exitX=0.5;exitY=0;exitDx=0;exitDy=0;" edge="1" parent="1" source="aL16ZHIRNdVHIbHvVfG5-28" target="aL16ZHIRNdVHIbHvVfG5-20">
          <mxGeometry relative="1" as="geometry">
            <mxPoint x="220" y="-795.8997924696117" as="sourcePoint" />
            <mxPoint x="353" y="-740" as="targetPoint" />
          </mxGeometry>
        </mxCell>
        <mxCell id="aL16ZHIRNdVHIbHvVfG5-32" value="publish&lt;br&gt;(&quot;show&quot;)" style="text;html=1;strokeColor=none;fillColor=none;align=center;verticalAlign=middle;whiteSpace=wrap;fontSize=9;rotation=-90;sketch=1;" vertex="1" parent="1">
          <mxGeometry x="115" y="-870" width="40" height="20" as="geometry" />
        </mxCell>
        <mxCell id="aL16ZHIRNdVHIbHvVfG5-33" value="subscribe&lt;br&gt;(&quot;show&quot;)" style="text;html=1;strokeColor=none;fillColor=none;align=center;verticalAlign=middle;whiteSpace=wrap;fontSize=9;rotation=90;sketch=1;" vertex="1" parent="1">
          <mxGeometry x="140" y="-870" width="50" height="22" as="geometry" />
        </mxCell>
        <mxCell id="aL16ZHIRNdVHIbHvVfG5-34" value="Session XYZ" style="text;html=1;align=center;verticalAlign=middle;whiteSpace=wrap;fontSize=14;fillColor=#ffffff;fontStyle=1;sketch=0;" vertex="1" parent="1">
          <mxGeometry x="670" y="-810" width="90" height="20" as="geometry" />
        </mxCell>
        <mxCell id="aL16ZHIRNdVHIbHvVfG5-35" value="init()" style="text;html=1;strokeColor=none;fillColor=none;align=center;verticalAlign=middle;whiteSpace=wrap;rounded=0;sketch=1;fontSize=12;fontColor=#000000;fontStyle=1" vertex="1" parent="1">
          <mxGeometry x="720" y="-743" width="40" height="20" as="geometry" />
        </mxCell>
        <mxCell id="aL16ZHIRNdVHIbHvVfG5-36" style="orthogonalLoop=1;jettySize=auto;html=1;fontColor=#990000;startArrow=classic;startFill=1;sketch=1;entryX=0.5;entryY=1;entryDx=0;entryDy=0;exitX=0.5;exitY=0;exitDx=0;exitDy=0;" edge="1" parent="1">
          <mxGeometry relative="1" as="geometry">
            <mxPoint x="700" y="-666" as="sourcePoint" />
            <mxPoint x="700" y="-723" as="targetPoint" />
          </mxGeometry>
        </mxCell>
        <mxCell id="aL16ZHIRNdVHIbHvVfG5-37" value="publish&lt;br&gt;(&quot;show&quot;)" style="text;html=1;strokeColor=none;fillColor=none;align=center;verticalAlign=middle;whiteSpace=wrap;fontSize=9;rotation=-90;sketch=1;" vertex="1" parent="1">
          <mxGeometry x="665" y="-703" width="40" height="20" as="geometry" />
        </mxCell>
        <mxCell id="aL16ZHIRNdVHIbHvVfG5-38" value="subscribe&lt;br&gt;(&quot;show&quot;)" style="text;html=1;strokeColor=none;fillColor=none;align=center;verticalAlign=middle;whiteSpace=wrap;fontSize=9;rotation=90;sketch=1;" vertex="1" parent="1">
          <mxGeometry x="690" y="-703" width="50" height="22" as="geometry" />
        </mxCell>
        <mxCell id="aL16ZHIRNdVHIbHvVfG5-39" value="View V2" style="whiteSpace=wrap;html=1;fontColor=#333333;fillStyle=solid;fontStyle=1;strokeColor=#6666FF;fillColor=#CCCCFF;sketch=1;" vertex="1" parent="1">
          <mxGeometry x="640" y="-665.5" width="120" height="60" as="geometry" />
        </mxCell>
        <mxCell id="aL16ZHIRNdVHIbHvVfG5-40" value="" style="shape=image;verticalLabelPosition=bottom;labelBackgroundColor=#ffffff;verticalAlign=top;aspect=fixed;imageAspect=0;image=data:image/png,iVBORw0KGgoAAAANSUhEUgAAAPwAAAD8CAYAAABTq8lnAAAN8UlEQVR4Ae2dwW4URxRF+RYsdkj5Fb6A3yALpLDPB0RykCKhZJ0NK/YOyoIVii2BvEEmQrZiWUk2YUFHF1R4aKbtGk931Zt3D9KoPU1PV3W9e+q+ma6uunWLf7QALeDVAi9/uP2Il18bHP14+zvi7hX3jz2bgn64vzfwog3QQG4NADwdHR29kQYA3ijYuHdu966JL8ADPA5vpAGANwp2jQNwTO4sAOABHoc30gDAGwUb987t3jXxBXiAx+GNNADwRsGucQCOyZ0FADzA4/BGGgB4o2Dj3rnduya+NwL+9ODbgRdtgAbiaKAGdh1zY+CHi5OBF22ABvprQB0vwNMh0SGbaADgTQKNu/Z31wgxAHiAx92NNADwRsGO4DDUoW+mAfAAj8MbaQDgjYKNu/Z11wjtD/AAj8MbaQDgjYIdwWGoQ98sA+ABHoc30gDAGwUbd+3rrhHaH+ABHoc30gDAGwU7gsNQh75ZBsADPA5vpAGANwo27trXXSO0P8ADPA5vpAGANwp2BIehDn2zDIAHeBzeSAMAbxRs3LWvu0Zof4AHeBzeSAMAbxTsCA5DHfpmGQAP8Di8kQYA3ijYuGtfd43Q/gAP8Di8kQYA3ijYERyGOvTNMgAe4HF4Iw0AvFGwcde+7hqh/QEe4HF4Iw0AvFGwIzgMdeibZQA8wOPwRhoAeKNg46593TVC+wM8wOPwRhoAeKNgR3AY6tA3ywB4gMfhjTQA8EbBxl37umuE9gf4SuD/+/P34Z+jX4bzF98PZ88fDqcHDz5u9V779f8RAkodloM6gwYA/grg//7jp+Hts/vD65+/GQ7396596Tgdr88B3nLgtWzbbBoA+BHwH/46Hs5+e1gN+VRHIPh1ng/nx8A/auOWwN6krMwaAPgVMSo9f/Xk7rVOPgX5uv06n857E+HxmfZZQnYNAPzFyfD+3YvhzdN7s4I+hl/nVzlA3B7imjZ30YA98P++/nXr9H0M99R7pfkqr0aAHNOuY3DSgDXw+nX96PGdRZ19DL/KU7kA3Q7oq9raTQO2wKtXbw17gV/l4vT9gXfUgCXw+r5We6utQDr3VuXznb4f9K4asAR+6R/oajsH1eOqdJP/W65DcNWAHfC67VILZIvjuGW3HNRTHaazBqyA1yCYue+zb9spqD4a6DElTvbP2yG4a8AKeI182xbQJT6vegH2vGBPtae7BqyA7/1D3VRnoXpNCZT983YE7hqwAV4PQUwBF2E/D9zMC/a6jhINnAw2wOsptghgT9VB9VsnUvbN1xGgASPgo6ZypQMgrZ8P7KlOEg2YAK+JCwpYkbdMorEc9GjgU9tapPQaLx0Z9FI3xtgvBzwaMAI+2kCLAvh4yyCc5YBHA0bAaw66MVwR36ueU98/2b9dZ4AGjIDXhJMRAR/XSfUE7O3Anmo/NGAEPL37MhBNwRVxPxowAp7vbwCPBoyA5xdagEcDRsBzDxbg0YAR8PpOySgroEcDJiPtBDzjqAEeDRgBz5NSAI8GjICPnNbz4Ey7zihqWt9KAxZj6ct9YffZTko7OG/dNWAFvOaOCzmnHQtONhth6K4BK+DlbNEGYKg+zo7b49qdNWAHvATmOid5D7iilumqAUvgXVcdiQpfj3q5asASeAnMcV2xHmBFLtNRA7bAS4gaX916QUlWj213C66ms3HTgDXwEoR6+Vb3ZlWOyqsRIse06xicNGAPvMDS97mlf8TR+VUOILcDeZO2dtEAwF9cClC3a+a+T6/zcevtso03gbDHsdk1APArwEtgWmxQo7G2TfP1eZ2HhSJ3B/bSwWTWAMCPgC9B11YPW+gJq1r4dZyO1+dWz8Pfuwd9iVk2DQD8FcCXoGurCRT0i65SPs2PpkkRtdV77df/rx7P37sL+VTsMmgA4CuBnxIB+/OBnTmmAA/wZCZGGgB4o2Bndi6urS7TAniAx+GNNADwRsHGBetcMHM7ATzA4/BGGgB4o2Bndi6urS57AXiAx+GNNADwRsHGBetcMHM7ATzA4/BGGgB4o2Bndi6urS57AXiAx+GNNADwRsHGBetcMHM7ATzA4/BGGgB4o2Bv4lwZHgXd5HpdjgV4gP/s8Nkme3CBeJPrBHhz4DUF16xTerFO3ucOdBMQWx0L8MbAZ5+wsRVEu1QOwBsC7zIl8y6B2KquAG8GvNOiC60g2qVyAN4IeLdllXYJxFZ1BXgT4OXsrdfRO9zfG/RSuSyxFWPQD8AbAK/v7LVz6xdI596qfJba6g89wBsAv/S6ebWdg+rRKnWlnPWdC8AnB1633mqBbHGc6gOM62Fs0S4Anxh4rZE29+KY23YKqg/r7QE8vf4CHY9G0G0L6BKfV71auBllfN2x4PALgBZFaL1/qJvqLFSvKG3kVg+ATwq8HoSZAi7CflbY/dp9W3Q+AJ8UeC1bHQHsqTqofi0EThlfdiwAnxT4qOl86QBI678EsVXHBPAJgdfkFQWsyFvVs5XQKedTBwPwCYHXmPnIoJe6qZ6A2NbpAT4h8NEG2xTAx1sG4bSFXZ0rwCcE/ux5zPvvY+BVTxy+LfQAnxD404MHO5HSq54AD/CIYMtOCIdvC9EudVo4/JZwRQw23+EBfkqXAJ8QeH6lB3iATwj2VFC5Dw/wU9rA4ZN2BIy0A/p10AN8UuAZSw/wAJ8U7nWB5Wk5gF+nCxw+cScQNa3nwZl+nRHAJwaeGW/6gbXOXSPsA/jEwGvuuJBz2rHgZLfBZQCfGHg5SrRBODww0zfrAPjkwAt65qXvC1mEVL7UAeANgGflGYAHeAPQS5C1ZW05oJcOcHgj8Fk9FugB3gj44vSt7s+rHFaNjdXJALwZ8IJe3+mX/iFP52e12Fiwk9Ibwq6gl5dukc19n17n49bbZRuXto6yxeFXAIgSlJb10IKTGpG3bZqvz+s8LBQZF3bpCuDNgV/tXPTAjZ6yq4Vfx+l4lo2KDflqjAEe4D+n+KvC0CQa+lVf6bnmyNOEk9rqvfaziMTuQL4aV4AH+LXAr4qEv3cT7nVxA3iAB3gjDQC8UbDX9fjsy+PeNbEEeIDH4Y00APBGwa5xAI7J7fgAD/A4vJEGAN4o2Lh3bveuiS/AAzwOb6QBgDcKdo0DcEzuLADgAR6HN9IAwBsFG/fO7d418QV4gMfhjTQA8EbBrnEAjsmdBQA8wOPwRhoAeKNg49653bsmvgAP8Di8kQYA3ijYNQ7AMbmzAIAHeBzeSAMAbxRs3Du3e9fEF+ABHoc30gDAVwabSR1xxwwaAPgrgGfaZiDPpgGAHwGvhRRmXZjh/JiUedTGNd81ex6TWQMAvyJGll7C0bNrAOBZXJEMxEgD9sBrOePapZUO9/eGbV4qh+WT42URThqwBl5LJh09vrMVxJt2ACpP5fb8jkrZl52OmwZsgVev3hr20jmoXJz+ErpeHZCjBiyBf//uRbM0vkA+3iq9Vz16id29XFcNWAL/5um9pmn8GPbyXvVwB6/X9btqwA543XYpwEXYqj69RO9arrMGrID/cH48vHpyNxTwqo8GerjC1/q63TVgBbxG0EVw9XEdVK/Wwnctz10DVsC3ut8+Bvq696qXK4Ctr9tdAzbA6yGI68Dr+f+qX2vxu5WHBk4GG+DfPrsfGnjVzw3A1teLBoyAj5rKlayCtH75gThowAR4TVxQwIq8VT1bu55LeWjgU4dqkdJrvHRk0EvdGGO/nMujASPgow20KICPtwzCWQ54NGAE/NnzmPffx8Crni4pduvrRANGwJ8ePNiJlF71bA2CS3lowAh4evflUuVd6TDQgBHwfH8DeDRgBDy/0AI8GjACnnuwAI8GjIDX90xGWQE9GjAZaSfgGUcN8GjACHielAJ4NGAEfOS0ngdn2nVGUdP6VhqwGEtf7hW7z3ZS2sF5664BK+A1d1zIOe1YcLLZCEN3DVgBL2eLNgBD9XF23B7X7qwBO+AlMNc5yXvAFbVMVw1YAu+66khU+HrUy1UDlsBLYI7rivUAK3KZjhqwBV5C1Pjq1gtKsnpsu1twNZ2NmwasgZcg1Mu3ujerclRejRA5pl3H4KQBe+AFlr7PLf0jjs6vcgC5HcibtLWLBgD+4lKAul0z9316nY9bb5dtvAmEPY7NrgGAXwFeAtNigxqNtW2ar8/rPCwUuTuwlw4mswYAfgR8Cbq2ethCT1jVwq/jdLw+t3oe/t496EvMsmkA4K8AvgRdW02goF90lfJpfjRNiqit3mu//n/1eP7eXcinYpdBAwBfCfyUCNifD+zMMQV4gCczMdIAwBsFO7NzcW11mRbAAzwOb6QBgDcKNi5Y54KZ2wngAR6HN9IAwBsFO7NzcW112QvAAzwOb6QBgDcKNi5Y54KZ2wngAR6HN9IAwBsFO7NzcW112QvAAzwOb6QBgDcKNi5Y54KZ2wngAR6HN9IAwBsFO7NzcW112QvAAzwOb6QBgDcKNi5Y54KZ2wngAR6HN9IAwBsFO7NzcW112QvAAzwOb6QBgDcKNi5Y54KZ2wngAR6HN9IAwBsFO7NzcW112QvAAzwOb6QBgDcKNi5Y54KZ2wngAR6HN9IAwBsFO7NzcW112QvAAzwOb6QBgDcKNi5Y54KZ26kJ8CqEF22ABmJo4HB/b6h53dK/lz/cflRzMMfUNSrtRDtF1QDAV/aMUQNIvehcNtEAwAN8VSq4iag4Nm4nBPAAD/BGGgB4o2DjvHGdt1VsAB7gcXgjDQC8UbBbuQjlxM0kAB7gcXgjDQC8UbBx3rjO2yo2AA/wOLyRBv4H/fhzYZDvMk0AAAAASUVORK5CYII=;sketch=1;" vertex="1" parent="1">
          <mxGeometry x="733" y="-632.5" width="27" height="27" as="geometry" />
        </mxCell>
        <mxCell id="aL16ZHIRNdVHIbHvVfG5-41" value="Model M1" style="whiteSpace=wrap;html=1;fillColor=#f8cecc;strokeColor=#b85450;fillStyle=zigzag;fontColor=#990000;fontStyle=1;sketch=1;" vertex="1" parent="1">
          <mxGeometry x="580" y="-1110" width="120" height="60" as="geometry" />
        </mxCell>
        <mxCell id="aL16ZHIRNdVHIbHvVfG5-42" value="Session XYZ" style="text;html=1;align=center;verticalAlign=middle;whiteSpace=wrap;fontSize=14;fillColor=#ffffff;fontStyle=1;sketch=0;" vertex="1" parent="1">
          <mxGeometry x="610" y="-1137" width="90" height="20" as="geometry" />
        </mxCell>
        <mxCell id="aL16ZHIRNdVHIbHvVfG5-43" value="init()" style="text;html=1;strokeColor=none;fillColor=none;align=center;verticalAlign=middle;whiteSpace=wrap;rounded=0;sketch=1;fontSize=12;fontColor=#000000;fontStyle=1" vertex="1" parent="1">
          <mxGeometry x="660" y="-1070" width="40" height="20" as="geometry" />
        </mxCell>
        <mxCell id="aL16ZHIRNdVHIbHvVfG5-44" style="orthogonalLoop=1;jettySize=auto;html=1;fontColor=#990000;startArrow=classic;startFill=1;sketch=1;entryX=0.5;entryY=1;entryDx=0;entryDy=0;exitX=0.5;exitY=0;exitDx=0;exitDy=0;" edge="1" parent="1">
          <mxGeometry relative="1" as="geometry">
            <mxPoint x="640" y="-993" as="sourcePoint" />
            <mxPoint x="640" y="-1050" as="targetPoint" />
          </mxGeometry>
        </mxCell>
        <mxCell id="aL16ZHIRNdVHIbHvVfG5-45" value="publish&lt;br&gt;(&quot;show&quot;)" style="text;html=1;strokeColor=none;fillColor=none;align=center;verticalAlign=middle;whiteSpace=wrap;fontSize=9;rotation=-90;sketch=1;" vertex="1" parent="1">
          <mxGeometry x="605" y="-1030" width="40" height="20" as="geometry" />
        </mxCell>
        <mxCell id="aL16ZHIRNdVHIbHvVfG5-46" value="subscribe&lt;br&gt;(&quot;show&quot;)" style="text;html=1;strokeColor=none;fillColor=none;align=center;verticalAlign=middle;whiteSpace=wrap;fontSize=9;rotation=90;sketch=1;" vertex="1" parent="1">
          <mxGeometry x="630" y="-1030" width="50" height="22" as="geometry" />
        </mxCell>
        <mxCell id="aL16ZHIRNdVHIbHvVfG5-47" value="" style="shape=image;verticalLabelPosition=bottom;labelBackgroundColor=#ffffff;verticalAlign=top;aspect=fixed;imageAspect=0;image=data:image/png,iVBORw0KGgoAAAANSUhEUgAAAPwAAAD8CAYAAABTq8lnAAAN8UlEQVR4Ae2dwW4URxRF+RYsdkj5Fb6A3yALpLDPB0RykCKhZJ0NK/YOyoIVii2BvEEmQrZiWUk2YUFHF1R4aKbtGk931Zt3D9KoPU1PV3W9e+q+ma6uunWLf7QALeDVAi9/uP2Il18bHP14+zvi7hX3jz2bgn64vzfwog3QQG4NADwdHR29kQYA3ijYuHdu966JL8ADPA5vpAGANwp2jQNwTO4sAOABHoc30gDAGwUb987t3jXxBXiAx+GNNADwRsGucQCOyZ0FADzA4/BGGgB4o2Dj3rnduya+NwL+9ODbgRdtgAbiaKAGdh1zY+CHi5OBF22ABvprQB0vwNMh0SGbaADgTQKNu/Z31wgxAHiAx92NNADwRsGO4DDUoW+mAfAAj8MbaQDgjYKNu/Z11wjtD/AAj8MbaQDgjYIdwWGoQ98sA+ABHoc30gDAGwUbd+3rrhHaH+ABHoc30gDAGwU7gsNQh75ZBsADPA5vpAGANwo27trXXSO0P8ADPA5vpAGANwp2BIehDn2zDIAHeBzeSAMAbxRs3LWvu0Zof4AHeBzeSAMAbxTsCA5DHfpmGQAP8Di8kQYA3ijYuGtfd43Q/gAP8Di8kQYA3ijYERyGOvTNMgAe4HF4Iw0AvFGwcde+7hqh/QEe4HF4Iw0AvFGwIzgMdeibZQA8wOPwRhoAeKNg46593TVC+wM8wOPwRhoAeKNgR3AY6tA3ywB4gMfhjTQA8EbBxl37umuE9gf4SuD/+/P34Z+jX4bzF98PZ88fDqcHDz5u9V779f8RAkodloM6gwYA/grg//7jp+Hts/vD65+/GQ7396596Tgdr88B3nLgtWzbbBoA+BHwH/46Hs5+e1gN+VRHIPh1ng/nx8A/auOWwN6krMwaAPgVMSo9f/Xk7rVOPgX5uv06n857E+HxmfZZQnYNAPzFyfD+3YvhzdN7s4I+hl/nVzlA3B7imjZ30YA98P++/nXr9H0M99R7pfkqr0aAHNOuY3DSgDXw+nX96PGdRZ19DL/KU7kA3Q7oq9raTQO2wKtXbw17gV/l4vT9gXfUgCXw+r5We6utQDr3VuXznb4f9K4asAR+6R/oajsH1eOqdJP/W65DcNWAHfC67VILZIvjuGW3HNRTHaazBqyA1yCYue+zb9spqD4a6DElTvbP2yG4a8AKeI182xbQJT6vegH2vGBPtae7BqyA7/1D3VRnoXpNCZT983YE7hqwAV4PQUwBF2E/D9zMC/a6jhINnAw2wOsptghgT9VB9VsnUvbN1xGgASPgo6ZypQMgrZ8P7KlOEg2YAK+JCwpYkbdMorEc9GjgU9tapPQaLx0Z9FI3xtgvBzwaMAI+2kCLAvh4yyCc5YBHA0bAaw66MVwR36ueU98/2b9dZ4AGjIDXhJMRAR/XSfUE7O3Anmo/NGAEPL37MhBNwRVxPxowAp7vbwCPBoyA5xdagEcDRsBzDxbg0YAR8PpOySgroEcDJiPtBDzjqAEeDRgBz5NSAI8GjICPnNbz4Ey7zihqWt9KAxZj6ct9YffZTko7OG/dNWAFvOaOCzmnHQtONhth6K4BK+DlbNEGYKg+zo7b49qdNWAHvATmOid5D7iilumqAUvgXVcdiQpfj3q5asASeAnMcV2xHmBFLtNRA7bAS4gaX916QUlWj213C66ms3HTgDXwEoR6+Vb3ZlWOyqsRIse06xicNGAPvMDS97mlf8TR+VUOILcDeZO2dtEAwF9cClC3a+a+T6/zcevtso03gbDHsdk1APArwEtgWmxQo7G2TfP1eZ2HhSJ3B/bSwWTWAMCPgC9B11YPW+gJq1r4dZyO1+dWz8Pfuwd9iVk2DQD8FcCXoGurCRT0i65SPs2PpkkRtdV77df/rx7P37sL+VTsMmgA4CuBnxIB+/OBnTmmAA/wZCZGGgB4o2Bndi6urS7TAniAx+GNNADwRsHGBetcMHM7ATzA4/BGGgB4o2Bndi6urS57AXiAx+GNNADwRsHGBetcMHM7ATzA4/BGGgB4o2Bndi6urS57AXiAx+GNNADwRsHGBetcMHM7ATzA4/BGGgB4o2Bv4lwZHgXd5HpdjgV4gP/s8Nkme3CBeJPrBHhz4DUF16xTerFO3ucOdBMQWx0L8MbAZ5+wsRVEu1QOwBsC7zIl8y6B2KquAG8GvNOiC60g2qVyAN4IeLdllXYJxFZ1BXgT4OXsrdfRO9zfG/RSuSyxFWPQD8AbAK/v7LVz6xdI596qfJba6g89wBsAv/S6ebWdg+rRKnWlnPWdC8AnB1633mqBbHGc6gOM62Fs0S4Anxh4rZE29+KY23YKqg/r7QE8vf4CHY9G0G0L6BKfV71auBllfN2x4PALgBZFaL1/qJvqLFSvKG3kVg+ATwq8HoSZAi7CflbY/dp9W3Q+AJ8UeC1bHQHsqTqofi0EThlfdiwAnxT4qOl86QBI678EsVXHBPAJgdfkFQWsyFvVs5XQKedTBwPwCYHXmPnIoJe6qZ6A2NbpAT4h8NEG2xTAx1sG4bSFXZ0rwCcE/ux5zPvvY+BVTxy+LfQAnxD404MHO5HSq54AD/CIYMtOCIdvC9EudVo4/JZwRQw23+EBfkqXAJ8QeH6lB3iATwj2VFC5Dw/wU9rA4ZN2BIy0A/p10AN8UuAZSw/wAJ8U7nWB5Wk5gF+nCxw+cScQNa3nwZl+nRHAJwaeGW/6gbXOXSPsA/jEwGvuuJBz2rHgZLfBZQCfGHg5SrRBODww0zfrAPjkwAt65qXvC1mEVL7UAeANgGflGYAHeAPQS5C1ZW05oJcOcHgj8Fk9FugB3gj44vSt7s+rHFaNjdXJALwZ8IJe3+mX/iFP52e12Fiwk9Ibwq6gl5dukc19n17n49bbZRuXto6yxeFXAIgSlJb10IKTGpG3bZqvz+s8LBQZF3bpCuDNgV/tXPTAjZ6yq4Vfx+l4lo2KDflqjAEe4D+n+KvC0CQa+lVf6bnmyNOEk9rqvfaziMTuQL4aV4AH+LXAr4qEv3cT7nVxA3iAB3gjDQC8UbDX9fjsy+PeNbEEeIDH4Y00APBGwa5xAI7J7fgAD/A4vJEGAN4o2Lh3bveuiS/AAzwOb6QBgDcKdo0DcEzuLADgAR6HN9IAwBsFG/fO7d418QV4gMfhjTQA8EbBrnEAjsmdBQA8wOPwRhoAeKNg49653bsmvgAP8Di8kQYA3ijYNQ7AMbmzAIAHeBzeSAMAbxRs3Du3e9fEF+ABHoc30gDAVwabSR1xxwwaAPgrgGfaZiDPpgGAHwGvhRRmXZjh/JiUedTGNd81ex6TWQMAvyJGll7C0bNrAOBZXJEMxEgD9sBrOePapZUO9/eGbV4qh+WT42URThqwBl5LJh09vrMVxJt2ACpP5fb8jkrZl52OmwZsgVev3hr20jmoXJz+ErpeHZCjBiyBf//uRbM0vkA+3iq9Vz16id29XFcNWAL/5um9pmn8GPbyXvVwB6/X9btqwA543XYpwEXYqj69RO9arrMGrID/cH48vHpyNxTwqo8GerjC1/q63TVgBbxG0EVw9XEdVK/Wwnctz10DVsC3ut8+Bvq696qXK4Ctr9tdAzbA6yGI68Dr+f+qX2vxu5WHBk4GG+DfPrsfGnjVzw3A1teLBoyAj5rKlayCtH75gThowAR4TVxQwIq8VT1bu55LeWjgU4dqkdJrvHRk0EvdGGO/nMujASPgow20KICPtwzCWQ54NGAE/NnzmPffx8Crni4pduvrRANGwJ8ePNiJlF71bA2CS3lowAh4evflUuVd6TDQgBHwfH8DeDRgBDy/0AI8GjACnnuwAI8GjIDX90xGWQE9GjAZaSfgGUcN8GjACHielAJ4NGAEfOS0ngdn2nVGUdP6VhqwGEtf7hW7z3ZS2sF5664BK+A1d1zIOe1YcLLZCEN3DVgBL2eLNgBD9XF23B7X7qwBO+AlMNc5yXvAFbVMVw1YAu+66khU+HrUy1UDlsBLYI7rivUAK3KZjhqwBV5C1Pjq1gtKsnpsu1twNZ2NmwasgZcg1Mu3ujerclRejRA5pl3H4KQBe+AFlr7PLf0jjs6vcgC5HcibtLWLBgD+4lKAul0z9316nY9bb5dtvAmEPY7NrgGAXwFeAtNigxqNtW2ar8/rPCwUuTuwlw4mswYAfgR8Cbq2ethCT1jVwq/jdLw+t3oe/t496EvMsmkA4K8AvgRdW02goF90lfJpfjRNiqit3mu//n/1eP7eXcinYpdBAwBfCfyUCNifD+zMMQV4gCczMdIAwBsFO7NzcW11mRbAAzwOb6QBgDcKNi5Y54KZ2wngAR6HN9IAwBsFO7NzcW112QvAAzwOb6QBgDcKNi5Y54KZ2wngAR6HN9IAwBsFO7NzcW112QvAAzwOb6QBgDcKNi5Y54KZ2wngAR6HN9IAwBsFO7NzcW112QvAAzwOb6QBgDcKNi5Y54KZ2wngAR6HN9IAwBsFO7NzcW112QvAAzwOb6QBgDcKNi5Y54KZ2wngAR6HN9IAwBsFO7NzcW112QvAAzwOb6QBgDcKNi5Y54KZ2wngAR6HN9IAwBsFO7NzcW112QvAAzwOb6QBgDcKNi5Y54KZ26kJ8CqEF22ABmJo4HB/b6h53dK/lz/cflRzMMfUNSrtRDtF1QDAV/aMUQNIvehcNtEAwAN8VSq4iag4Nm4nBPAAD/BGGgB4o2DjvHGdt1VsAB7gcXgjDQC8UbBbuQjlxM0kAB7gcXgjDQC8UbBx3rjO2yo2AA/wOLyRBv4H/fhzYZDvMk0AAAAASUVORK5CYII=;sketch=1;" vertex="1" parent="1">
          <mxGeometry x="673" y="-959.5" width="27" height="27" as="geometry" />
        </mxCell>
      </root>
    </mxGraphModel>
  </diagram>
</mxfile>
